<svg version="1.1" id="Layer_1" xmlns="http://www.w3.org/2000/svg" viewBox="0 0 552 530" xml:space="preserve">
  <defs>
    <filter id="grainTexture" x="-20%" y="-20%" width="140%" height="140%">
      <feTurbulence type="fractalNoise" baseFrequency="0.65" numOctaves="3" result="noise" />
      <feColorMatrix type="matrix" values="1 0 0 0 0  0 1 0 0 0  0 0 1 0 0  0 0 0 0.15 0" in="noise" result="colouredNoise" />
      <feComposite operator="in" in="colouredNoise" in2="SourceGraphic" result="textureOverlay" />
      <feBlend mode="multiply" in="textureOverlay" in2="SourceGraphic" />
    </filter>

    <linearGradient id="burgundyGrad" x1="20%" y1="0%" x2="80%" y2="100%">
      <stop offset="0%" stop-color="#8A0A0A" />
      <stop offset="100%" stop-color="#420404" />
    </linearGradient>

    <radialGradient id="tealGrad" cx="35%" cy="35%" r="65%">
      <stop offset="0%" stop-color="#00A5B5" />
      <stop offset="100%" stop-color="#004C54" />
    </radialGradient>

    <linearGradient id="hexTealGrad" x1="20%" y1="0%" x2="80%" y2="100%">
      <stop offset="0%" stop-color="#00A5B5" />
      <stop offset="100%" stop-color="#004C54" />
    </linearGradient>
  </defs>

  <!-- Teal hexagon: radius 236 (205 * 1.15), center 276,265, stroke-width unchanged at 20 -->
  <g filter="url(#grainTexture)">
    <polygon
      points="276,29 480,147 480,383 276,501 72,383 72,147"
      fill="none"
      stroke="url(#hexTealGrad)"
      stroke-width="20"
      stroke-linejoin="round"
    />
  </g>

  <!-- Original artwork, re-centered in new viewBox -->
  <g filter="url(#grainTexture)" transform="translate(67.5, 73)">

    <path fill="url(#burgundyGrad)" d="
      M203.003464,212.244431 
      C203.497192,209.573914 203.400558,206.901260 204.664978,205.310272 
      C205.706818,203.999329 208.510422,203.242508 210.254517,203.600006 
      C211.682404,203.892700 213.681915,206.149902 213.741150,207.604904 
      C214.165405,218.024734 214.094879,228.463425 214.305389,238.893616 
      C214.509781,249.020218 214.461945,259.182587 215.436630,269.240875 
      C215.673553,271.685791 219.083038,274.628784 221.727203,275.897308 
      C234.016312,281.792908 243.459625,290.198395 246.975128,303.732208 
      C253.508347,328.883484 233.733154,350.924591 211.773788,352.072937 
      C201.109512,352.630585 191.552200,350.180389 183.532730,343.218872 
      C167.272049,329.103271 164.911148,305.671783 178.275269,289.608337 
      C182.860352,284.097168 189.474854,279.841705 195.917755,276.446136 
      C201.046539,273.743164 202.982208,270.379059 202.986237,265.148621 
      C202.999695,247.669174 202.997940,230.189728 203.003464,212.244431 z" />

    <path fill="url(#burgundyGrad)" d="
      M29.495911,176.313019 
      C23.520586,163.619125 23.286274,151.433929 29.882402,139.147186 
      C36.803326,126.255455 53.849480,118.077454 68.314819,120.525192 
      C85.259895,123.392525 95.599808,133.228867 100.240417,149.400848 
      C101.435844,153.566757 104.041611,155.525711 108.029831,155.893707 
      C119.921898,156.990997 131.822189,158.001678 143.723663,158.993698 
      C152.652832,159.738007 161.618668,160.168320 170.494873,161.309036 
      C172.148865,161.521591 174.548492,164.397202 174.619904,166.125778 
      C174.694305,167.926727 172.726135,170.379181 170.979797,171.512268 
      C169.531799,172.451752 167.092529,172.100891 165.119263,171.956024 
      C148.576065,170.741379 132.041702,169.406036 115.497978,168.199112 
      C112.184212,167.957352 108.677864,167.471832 105.563599,168.274872 
      C102.989471,168.938629 99.847885,170.819275 98.704475,173.054321 
      C91.749794,186.648743 80.796730,194.690414 65.785446,195.589172 
      C52.151886,196.405426 40.437073,191.162338 31.986309,179.872284 
      C31.193268,178.812805 30.455851,177.711670 29.495911,176.313019 z" />

    <path fill="url(#burgundyGrad)" d="
      M337.437897,124.294495 
      C357.582825,114.874474 376.235535,122.180313 386.862946,136.945679 
      C402.325470,158.428711 388.205566,190.914139 361.955139,194.921646 
      C343.515320,197.736771 329.543274,190.807159 320.684662,174.304367 
      C318.413940,170.074219 315.249298,167.685547 310.316681,168.010696 
      C296.076355,168.949417 281.835968,169.887939 267.594879,170.815323 
      C261.464172,171.214554 255.331146,171.578445 249.200134,171.973297 
      C245.482407,172.212723 242.654556,170.670380 242.588150,166.886902 
      C242.522003,163.118637 244.817184,161.237198 249.000717,160.927811 
      C269.188385,159.434830 289.355652,157.659607 309.522308,155.894485 
      C313.646484,155.533493 316.594177,153.565567 317.799744,149.221176 
      C320.816681,138.349609 326.908875,129.785812 337.437897,124.294495 z" />

    <path fill="url(#burgundyGrad)" d="
      M70.844994,236.184204 
      C77.870804,218.136017 94.211166,211.376953 111.476074,219.306259 
      C116.584785,221.652557 121.044060,221.298630 125.550713,218.233932 
      C139.837524,208.518433 154.106781,198.776077 168.478333,189.187241 
      C170.617599,187.759903 173.251724,186.391708 175.692657,186.326111 
      C177.480194,186.278076 180.057190,188.036041 180.902679,189.693024 
      C181.519943,190.902695 180.437607,193.917313 179.159302,194.977295 
      C175.599609,197.929047 171.559860,200.307037 167.679626,202.866028 
      C155.335358,211.007050 142.912735,219.031586 130.659912,227.307678 
      C126.368439,230.206345 124.379333,234.398438 125.418999,239.832291 
      C127.457840,250.488312 122.193665,262.253326 113.317772,267.291412 
      C101.679276,273.897583 89.197617,273.242554 80.237564,265.700104 
      C71.012405,257.934479 68.236153,248.136734 70.844994,236.184204 z" />

    <path fill="url(#burgundyGrad)" d="
      M328.376892,270.672943 
      C311.709137,273.210052 300.364471,268.064636 295.217804,254.930557 
      C293.407654,250.311127 293.211517,244.885544 293.119324,239.812775 
      C293.015686,234.112335 291.009460,230.186508 286.189148,226.998428 
      C270.945770,216.916626 255.947525,206.464951 240.781403,196.264923 
      C237.802933,194.261734 235.756180,191.882385 237.697144,188.484436 
      C239.775314,184.846313 243.539688,185.340561 246.527130,186.996155 
      C251.303452,189.643173 255.776154,192.851822 260.303864,195.930893 
      C271.014984,203.215088 281.760284,210.453308 292.338593,217.926865 
      C298.409698,222.216064 304.078644,220.638306 310.166290,218.014771 
      C321.201691,213.258972 334.643188,216.888062 342.106171,226.242691 
      C354.795959,242.148926 348.271393,263.826843 328.376892,270.672943 z" />

    <path fill="url(#burgundyGrad)" d="
      M184.175186,42.287651 
      C194.246475,24.667929 219.116348,23.325403 231.683594,39.310909 
      C242.108765,52.571724 238.652267,73.590172 221.652939,81.478981 
      C216.257324,83.982910 214.260544,88.060928 214.156937,93.274887 
      C213.906525,105.875572 213.947372,118.483994 214.030945,131.088226 
      C214.056885,134.998978 212.947479,137.759521 208.634308,137.820740 
      C204.010040,137.886368 202.927856,134.958679 202.966141,130.858398 
      C203.082809,118.363495 202.901611,105.865669 203.036362,93.371140 
      C203.098724,87.588669 200.903610,83.800743 195.551331,81.143509 
      C180.733902,73.787155 175.934769,57.302544 184.175186,42.287651 z" />

    <path fill="url(#burgundyGrad)" d="
      M312.235016,104.100090 
      C304.476898,113.991943 294.697449,116.040314 283.461700,112.662560 
      C278.751068,111.246422 275.359924,113.346603 272.272644,116.285789 
      C262.767822,125.334694 253.373260,134.499329 243.891144,143.572281 
      C242.342545,145.054047 240.748383,146.939865 238.847015,147.477005 
      C236.859482,148.038513 233.438583,147.974747 232.534042,146.767899 
      C231.461548,145.336990 231.564331,141.813766 232.655273,140.226746 
      C234.880020,136.990280 238.064850,134.398849 240.931229,131.621231 
      C249.758484,123.067352 258.590790,114.518173 267.489716,106.039131 
      C270.312286,103.349777 271.120605,100.559753 269.883179,96.671944 
      C267.095215,87.912773 269.555176,79.997208 275.973785,73.893265 
      C283.668365,66.575844 293.159393,65.312851 302.746796,69.588776 
      C311.322876,73.413643 316.157806,80.597969 315.817047,90.118851 
      C315.652405,94.718521 313.641144,99.252083 312.235016,104.100090 z" />

    <path fill="url(#burgundyGrad)" d="
      M104.995506,103.851669 
      C95.048447,85.865250 106.866989,70.769844 119.492676,68.143250 
      C136.958771,64.509682 151.037567,78.120201 147.667740,95.815636 
      C146.554596,101.660828 148.312378,105.268509 152.755615,108.574928 
      C155.533081,110.641777 157.770340,113.423164 160.322372,115.806412 
      C168.448471,123.395027 176.588837,130.968658 184.766663,138.501434 
      C187.403473,140.930283 187.852905,143.714310 185.721649,146.432541 
      C183.740875,148.958832 181.102417,149.557724 178.366272,147.176361 
      C177.369675,146.308990 176.205048,145.626083 175.254898,144.715240 
      C166.019745,135.862198 156.749313,127.044319 147.626404,118.076546 
      C142.928757,113.458771 138.181442,111.241066 131.155151,113.224396 
      C120.801125,116.147064 111.869370,112.827812 104.995506,103.851669 z" />

    <path fill="url(#tealGrad)" d="
      M195.139435,148.973389 
      C210.818298,139.617935 229.245224,148.401505 233.495132,163.901245 
      C237.259827,177.631439 225.505951,194.026810 211.367569,193.916901 
      C207.155426,193.884171 202.693787,193.581070 198.787628,192.175674 
      C182.216537,186.213608 177.761078,161.245224 195.139435,148.973389 z" />

  </g>
</svg>